<svg xmlns="http://www.w3.org/2000/svg" xmlns:xlink="http://www.w3.org/1999/xlink" viewBox="0 0 13.93 13.93"><defs><style>.cls-1{fill:none;}.cls-2{clip-path:url(#clip-path);}.cls-3{fill:url(#Dégradé_sans_nom_4);}.cls-4{clip-path:url(#clip-path-2);}.cls-5{fill:#fff;}</style><clipPath id="clip-path" transform="translate(0 0)"><circle class="cls-1" cx="6.97" cy="6.97" r="6.97"/></clipPath><linearGradient id="Dégradé_sans_nom_4" x1="-365.8" y1="378.16" x2="-364.8" y2="378.16" gradientTransform="matrix(0, -13.93, -13.93, 0, 5276.24, -5083.08)" gradientUnits="userSpaceOnUse"><stop offset="0" stop-color="#7666ab"/><stop offset="1" stop-color="#6379ba"/></linearGradient><clipPath id="clip-path-2" transform="translate(0 0)"><rect class="cls-1" width="13.93" height="13.93"/></clipPath></defs><title>city</title><g id="Calque_2" data-name="Calque 2"><g id="Calque_1-2" data-name="Calque 1"><g class="cls-2"><rect class="cls-3" width="13.93" height="13.93"/></g><g class="cls-4"><path class="cls-5" d="M2.89,10.46h.66a.68.68,0,0,1,0-.2,1,1,0,0,1,.72-1V8.87H4.06a1.23,1.23,0,0,0-1.23,1.23,1.19,1.19,0,0,0,.06.37m1.49,0h.88a.68.68,0,0,0,0-.2.75.75,0,0,0-1.5,0,.69.69,0,0,0,0,.2ZM9.75,9.7H8.12v.76H9.75ZM9.18,8.07a0,0,0,0,0,0-.05H8.82a0,0,0,0,0-.05.05V9.44h.41ZM7.81,8H6.44a.05.05,0,0,0-.05.05v2.39H7.86V8.07A0,0,0,0,0,7.81,8M5.37,9.7a1,1,0,0,1,.17.56.68.68,0,0,1,0,.2h.62V9.7Zm.12-1.63a.05.05,0,0,0,0-.05H5.12a0,0,0,0,0,0,.05V9.41l0,0h.37ZM4.06,8.6l.19,0V8.06a.13.13,0,1,1,.26,0V9.25h0a1.35,1.35,0,0,1,.29,0V8.07a.29.29,0,0,1,.3-.3h.32a.29.29,0,0,1,.3.3V9.44h.4V8.07a.29.29,0,0,1,.3-.3H7.81a.3.3,0,0,1,.31.3V9.44h.39V8.07a.3.3,0,0,1,.31-.3h.31a.3.3,0,0,1,.31.3V9.44h.31V6.8L7.13,4.45,4.51,6.8v.7a.13.13,0,0,1-.26,0V7l0,0a.3.3,0,0,1-.43,0l-.29-.32a.31.31,0,0,1,0-.43L4.91,5a.14.14,0,0,1,.18,0,.13.13,0,0,1,0,.18L3.67,6.49s0,0,0,.06L4,6.88a.06.06,0,0,0,.07,0L7,4.18a.14.14,0,0,1,.17,0l3,2.71h0s0,0,0,0l.3-.33a0,0,0,0,0,0-.06L7.31,3.55a.27.27,0,0,0-.36,0L5.5,4.85a.13.13,0,0,1-.18-.19l1.46-1.3a.52.52,0,0,1,.7,0L10.75,6.3a.3.3,0,0,1,0,.43l-.3.32a.29.29,0,0,1-.21.11h0a.32.32,0,0,1-.2-.08L10,7V8.61a1.46,1.46,0,0,1,.77.29.12.12,0,0,1,0,.18.1.1,0,0,1-.1.05l-.08,0A1.13,1.13,0,0,0,10,8.87v1.59h1.05a1.57,1.57,0,0,0,0-.37,1.24,1.24,0,0,0-.15-.6A.13.13,0,0,1,11,9.31a.13.13,0,0,1,.17,0,1.53,1.53,0,0,1,.19.73,1.66,1.66,0,0,1-.1.54.13.13,0,0,1-.12.08H2.8a.13.13,0,0,1-.12-.08,1.45,1.45,0,0,1-.11-.54A1.49,1.49,0,0,1,4.06,8.6" transform="translate(0 0)"/><path class="cls-5" d="M6.69,9.51a.13.13,0,0,1-.13-.13V9.24a.13.13,0,0,1,.26,0v.14a.13.13,0,0,1-.13.13" transform="translate(0 0)"/><path class="cls-5" d="M6.55,6.5a.58.58,0,1,0,.58-.58.58.58,0,0,0-.58.58M8,6.5a.83.83,0,0,1-.83.83A.84.84,0,1,1,8,6.5" transform="translate(0 0)"/></g></g></g></svg>