<svg xmlns="http://www.w3.org/2000/svg" xmlns:xlink="http://www.w3.org/1999/xlink" viewBox="0 0 13.93 13.93"><defs><style>.cls-1{fill:none;}.cls-2{clip-path:url(#clip-path);}.cls-3{fill:url(#Dégradé_sans_nom_5);}.cls-4{clip-path:url(#clip-path-2);}.cls-5{fill:#fff;}</style><clipPath id="clip-path" transform="translate(0 0)"><circle class="cls-1" cx="6.97" cy="6.97" r="6.97"/></clipPath><linearGradient id="Dégradé_sans_nom_5" x1="-365.8" y1="378.16" x2="-364.8" y2="378.16" gradientTransform="matrix(0, -13.93, -13.93, 0, 5276.24, -5083.08)" gradientUnits="userSpaceOnUse"><stop offset="0" stop-color="#7666ab"/><stop offset="1" stop-color="#6379ba"/></linearGradient><clipPath id="clip-path-2" transform="translate(0 0)"><rect class="cls-1" width="13.93" height="13.93"/></clipPath></defs><title>dribbble</title><g id="Calque_2" data-name="Calque 2"><g id="Calque_1-2" data-name="Calque 1"><g class="cls-2"><rect class="cls-3" width="13.93" height="13.93"/></g><g class="cls-4"><path class="cls-5" d="M8.64,10.35A12.38,12.38,0,0,0,8.1,7.5a5,5,0,0,1,2.59-.08,3.82,3.82,0,0,1-2,2.93m-1.73.42a3.75,3.75,0,0,1-2.19-.69,3.75,3.75,0,0,1,1.77-1.9,6.23,6.23,0,0,1,1.13-.53,12.26,12.26,0,0,1,.53,2.91,3.67,3.67,0,0,1-1.24.21M3.1,7c0-.11,0-.23,0-.33.24,0,.48,0,.73,0A10.32,10.32,0,0,0,7,6.12c.16.34.31.69.44,1a7.11,7.11,0,0,0-1.22.57,4.57,4.57,0,0,0-1.93,2A3.78,3.78,0,0,1,3.1,7M5.24,3.55A10.69,10.69,0,0,1,6.77,5.67a9.15,9.15,0,0,1-3.58.47A3.82,3.82,0,0,1,5.24,3.55m1.67-.39a3.8,3.8,0,0,1,2.57,1A5.29,5.29,0,0,1,7.25,5.5,11.3,11.3,0,0,0,5.74,3.34a4.09,4.09,0,0,1,1.17-.18M9.83,4.53a3.79,3.79,0,0,1,.88,2.38,5.36,5.36,0,0,0-2.19,0c-.19,0-.39.08-.59.13l-.21-.53c-.07-.18-.15-.35-.24-.53A5.94,5.94,0,0,0,9.83,4.53M6.91,2.66A4.31,4.31,0,1,0,11.22,7,4.32,4.32,0,0,0,6.91,2.66" transform="translate(0 0)"/></g></g></g></svg>