<svg xmlns="http://www.w3.org/2000/svg" xmlns:xlink="http://www.w3.org/1999/xlink" viewBox="0 0 13.93 13.93"><defs><style>.cls-1{fill:none;}.cls-2{clip-path:url(#clip-path);}.cls-3{fill:url(#Dégradé_sans_nom_3);}.cls-4{clip-path:url(#clip-path-2);}.cls-5{fill:#fff;}</style><clipPath id="clip-path" transform="translate(0 0)"><circle class="cls-1" cx="6.97" cy="6.97" r="6.97"/></clipPath><linearGradient id="Dégradé_sans_nom_3" x1="-365.8" y1="378.16" x2="-364.8" y2="378.16" gradientTransform="matrix(0, -13.93, -13.93, 0, 5276.24, -5083.08)" gradientUnits="userSpaceOnUse"><stop offset="0" stop-color="#7666ab"/><stop offset="1" stop-color="#6379ba"/></linearGradient><clipPath id="clip-path-2" transform="translate(0 0)"><rect class="cls-1" width="13.93" height="13.93"/></clipPath></defs><title>mail</title><g id="Calque_2" data-name="Calque 2"><g id="Calque_1-2" data-name="Calque 1"><g class="cls-2"><rect class="cls-3" width="13.93" height="13.93"/></g><g class="cls-4"><path class="cls-5" d="M8,6.18h2.81a.39.39,0,0,0-.1-.38L8.12,3.2A.46.46,0,0,0,8,3.11Zm-.4-3-4,4.05-.06.07h3V6.9a.71.71,0,0,1,.71-.72h.42V4.29l-.94,1a.13.13,0,0,1-.11,0,.15.15,0,0,1-.12,0,.17.17,0,0,1,0-.23L7.64,3.83V3.15l-.07.05m-.73,5,.48-.48a.15.15,0,0,1,.23,0,.17.17,0,0,1,0,.23l-.71.72v.48L8.3,7.7a.17.17,0,0,1,.23,0,.15.15,0,0,1,0,.23L6.84,9.65v.6l3.69-3.74H7.22a.38.38,0,0,0-.38.39ZM3.48,7.65a.39.39,0,0,0,.1.16L6.14,10.4a.37.37,0,0,0,.37.1V7.65ZM8.35,3l2.56,2.6a.72.72,0,0,1,0,1l-4,4a.69.69,0,0,1-.5.21.7.7,0,0,1-.5-.21L5.27,10l-.71.72a.17.17,0,0,1-.12.05.16.16,0,0,1-.11-.05.18.18,0,0,1,0-.24L5,9.75l-.3-.3L3.09,11.12a.13.13,0,0,1-.11.05.13.13,0,0,1-.12-.05.17.17,0,0,1,0-.23L4.51,9.22,3.35,8a.72.72,0,0,1,0-1l4-4a.75.75,0,0,1,.51-.21.71.71,0,0,1,.5.21" transform="translate(0 0)"/><path class="cls-5" d="M8.93,7.3A.16.16,0,0,1,9,7.41a.17.17,0,0,1-.17.17.16.16,0,0,1-.11,0,.17.17,0,0,1,0-.12.17.17,0,0,1,.16-.16.17.17,0,0,1,.12,0" transform="translate(0 0)"/><path class="cls-5" d="M4.14,10.89a.17.17,0,0,1,.05.12.16.16,0,0,1-.05.11.17.17,0,0,1-.12.05A.17.17,0,0,1,3.86,11a.17.17,0,0,1,.05-.12A.16.16,0,0,1,4,10.84a.17.17,0,0,1,.12.05" transform="translate(0 0)"/><path class="cls-5" d="M3.83,9.09a.17.17,0,0,1,0,.23l-.74.74a.13.13,0,0,1-.11,0,.13.13,0,0,1-.12,0,.17.17,0,0,1,0-.23l.74-.74a.15.15,0,0,1,.23,0" transform="translate(0 0)"/></g></g></g></svg>