<svg xmlns="http://www.w3.org/2000/svg" xmlns:xlink="http://www.w3.org/1999/xlink" viewBox="0 0 13.93 13.93"><defs><style>.cls-1{fill:none;}.cls-2{clip-path:url(#clip-path);}.cls-3{fill:url(#Dégradé_sans_nom_2);}.cls-4{clip-path:url(#clip-path-2);}.cls-5{fill:#fff;}</style><clipPath id="clip-path" transform="translate(0 0)"><circle class="cls-1" cx="6.97" cy="6.97" r="6.97"/></clipPath><linearGradient id="Dégradé_sans_nom_2" x1="-365.8" y1="378.16" x2="-364.8" y2="378.16" gradientTransform="matrix(0, -13.93, -13.93, 0, 5276.24, -5083.08)" gradientUnits="userSpaceOnUse"><stop offset="0" stop-color="#7666ab"/><stop offset="1" stop-color="#6379ba"/></linearGradient><clipPath id="clip-path-2" transform="translate(0 0)"><rect class="cls-1" width="13.93" height="13.93"/></clipPath></defs><title>phone</title><g id="Calque_2" data-name="Calque 2"><g id="Calque_1-2" data-name="Calque 1"><g class="cls-2"><rect class="cls-3" width="13.93" height="13.93"/></g><g class="cls-4"><path class="cls-5" d="M4.23,2.88c-.35,0-.66.33-.94.63l-.17.17c-.26.27-.23,1,.07,1.81A9.49,9.49,0,0,0,5.32,8.64a9.21,9.21,0,0,0,3.1,2.16c.82.31,1.51.34,1.78.07l.17-.17c.3-.28.63-.61.62-1a1.21,1.21,0,0,0-.53-.8c-1-.83-1.31-.54-1.78,0L8.59,9c-.23.23-.6.18-1.1-.15A8.84,8.84,0,0,1,6.22,7.72C5,6.47,4.6,5.71,5,5.32l.09-.09c.48-.48.77-.77,0-1.81a1.16,1.16,0,0,0-.78-.54h0m5.36,8.47a3.49,3.49,0,0,1-1.27-.28,9.52,9.52,0,0,1-3.2-2.22,9.78,9.78,0,0,1-2.2-3.26c-.36-1-.36-1.75,0-2.12l.16-.16c.32-.35.7-.75,1.18-.72a1.4,1.4,0,0,1,1,.64c1,1.25.54,1.69,0,2.21l-.09.09c-.08.08-.24.48,1.24,2A8.3,8.3,0,0,0,7.65,8.58c.21.14.58.34.73.19l.09-.09c.51-.53.95-1,2.17,0a1.42,1.42,0,0,1,.64,1,1.73,1.73,0,0,1-.71,1.2l-.16.16a1.14,1.14,0,0,1-.82.27" transform="translate(0 0)"/><path class="cls-5" d="M9.64,6.21H9.58A.15.15,0,0,1,9.5,6a1.27,1.27,0,0,0-.26-1.35,1.23,1.23,0,0,0-1.37-.25.15.15,0,0,1-.19-.07.16.16,0,0,1,.07-.2,1.5,1.5,0,0,1,1.69.32,1.54,1.54,0,0,1,.33,1.66.15.15,0,0,1-.13.09" transform="translate(0 0)"/><path class="cls-5" d="M10.93,6.74h0a.14.14,0,0,1-.08-.19,2.69,2.69,0,0,0-.58-2.88,2.58,2.58,0,0,0-2.93-.54A.14.14,0,0,1,7.1,3a.15.15,0,0,1,.07-.19,2.89,2.89,0,0,1,3.26.6,3,3,0,0,1,.64,3.2.15.15,0,0,1-.14.09" transform="translate(0 0)"/></g></g></g></svg>