<svg xmlns="http://www.w3.org/2000/svg" xmlns:xlink="http://www.w3.org/1999/xlink" viewBox="0 0 39.58 39.58"><defs><style>.cls-1{fill:none;}.cls-2{clip-path:url(#clip-path);}.cls-3{fill:#7566ab;}</style><clipPath id="clip-path" transform="translate(0 0)"><rect class="cls-1" width="39.58" height="39.58"/></clipPath></defs><title>videogames</title><g id="Calque_2" data-name="Calque 2"><g id="Calque_1-2" data-name="Calque 1"><g class="cls-2"><path class="cls-3" d="M14.51,29.69H11.88a.65.65,0,0,0-.66.65V33H9.9V30.34a.66.66,0,0,0-.66-.65H6.6V28.37H9.24a.67.67,0,0,0,.66-.66V25.07h1.32v2.64a.66.66,0,0,0,.66.66h2.63Zm.66-2.64H12.54V24.41a.66.66,0,0,0-.66-.66H9.24a.65.65,0,0,0-.66.66v2.64H5.94a.66.66,0,0,0-.66.66v2.63a.66.66,0,0,0,.66.66H8.58v2.64a.65.65,0,0,0,.66.66h2.64a.66.66,0,0,0,.66-.66V31h2.63a.65.65,0,0,0,.66-.66V27.71a.65.65,0,0,0-.66-.66" transform="translate(0 0)"/><path class="cls-3" d="M35.91,35.18a9.22,9.22,0,0,1-11.73,1.7,7.9,7.9,0,0,0-3.55-1.23q-.4,0-.84,0a8.83,8.83,0,0,0-.89,0,7.8,7.8,0,0,0-3.49,1.21,9.23,9.23,0,0,1-14-8.9,9.88,9.88,0,0,1,8.15-8.12,8.77,8.77,0,0,1,1-.06H29c.34,0,.68,0,1,.05A9.89,9.89,0,0,1,38.2,28a9.15,9.15,0,0,1-2.29,7.21m-16.78-18h1.32v1.32H19.13ZM39.52,27.82a11.14,11.14,0,0,0-9.33-9.28A9,9,0,0,0,29,18.47H21.77V15.83H20.45V14.51a2.64,2.64,0,0,0-2.64-2.64h-3.3a1.32,1.32,0,0,1,0-2.63H25.07a2.64,2.64,0,1,0,0-5.28h-3.3a1.32,1.32,0,0,1-1.32-1.32V0H19.13V2.64a2.64,2.64,0,0,0,2.64,2.64h3.3a1.32,1.32,0,1,1,0,2.64H14.51a2.64,2.64,0,0,0,0,5.27h3.3a1.32,1.32,0,0,1,1.32,1.32v1.32H17.81v2.64H10.56a9.18,9.18,0,0,0-1.17.07A11.13,11.13,0,0,0,.07,27.82,10.56,10.56,0,0,0,16.11,38,6.53,6.53,0,0,1,19,37a9.77,9.77,0,0,1,1.53,0,6.45,6.45,0,0,1,2.94,1,10.56,10.56,0,0,0,16-10.18" transform="translate(0 0)"/><path class="cls-3" d="M29,26.39a1.32,1.32,0,1,1,1.32-1.32A1.32,1.32,0,0,1,29,26.39m0-4a2.64,2.64,0,1,0,2.64,2.64A2.64,2.64,0,0,0,29,22.43" transform="translate(0 0)"/><path class="cls-3" d="M29,34.3A1.32,1.32,0,1,1,30.35,33,1.32,1.32,0,0,1,29,34.3m0-4A2.64,2.64,0,1,0,31.67,33,2.64,2.64,0,0,0,29,30.34" transform="translate(0 0)"/><path class="cls-3" d="M24.41,30.34A1.32,1.32,0,1,1,25.73,29a1.32,1.32,0,0,1-1.32,1.31m0-3.95A2.64,2.64,0,1,0,27.05,29a2.64,2.64,0,0,0-2.64-2.64" transform="translate(0 0)"/><path class="cls-3" d="M33.64,30.34A1.32,1.32,0,1,1,35,29a1.31,1.31,0,0,1-1.32,1.31m0-3.95A2.64,2.64,0,1,0,36.28,29a2.64,2.64,0,0,0-2.64-2.64" transform="translate(0 0)"/></g></g></g></svg>