<svg xmlns="http://www.w3.org/2000/svg" xmlns:xlink="http://www.w3.org/1999/xlink" viewBox="0 0 31.69 31.69"><defs><style>.cls-1{fill:none;}.cls-2{clip-path:url(#clip-path);}.cls-3{fill:#7566ab;}</style><clipPath id="clip-path" transform="translate(0 0)"><rect class="cls-1" width="31.69" height="31.69"/></clipPath></defs><title>writingstories</title><g id="Calque_2" data-name="Calque 2"><g id="Calque_1-2" data-name="Calque 1"><g class="cls-2"><path class="cls-3" d="M28.15,9.22,22.47,3.54l.82-.81L29,8.4ZM10,25.7,22.88,12.87a.59.59,0,0,0,0-.82.58.58,0,0,0-.81,0L9.23,24.89l-2.73.3.3-2.73L19.64,9.62a.58.58,0,0,0,0-.81.59.59,0,0,0-.82,0L6,21.65l-1.83.2L20,6l5.68,5.68L9.84,27.53ZM2.85,28.84a.59.59,0,0,0-.82,0l-.43.44,1.47-6.15,2.53-.29-.32,2.94s0,0,0,.06,0,.05,0,.07,0,0,0,.05l0,.1a.47.47,0,0,0,0,.1l.06.07.09.08.08.05.12,0,.06,0h.13l2.94-.32-.28,2.53L2.41,30.09l.44-.43a.59.59,0,0,0,0-.82m23.68-18L20.85,5.16l.81-.81L27.34,10Zm2.84-8.52a4,4,0,0,1,.37,5.24L24.13,2a4,4,0,0,1,5.24.37m.81-.81a5.17,5.17,0,0,0-7.3,0L2.2,22.19l0,0,0,0a.37.37,0,0,0-.07.14.05.05,0,0,0,0,0v0L0,31s0,.08,0,.12v0a.41.41,0,0,0,0,.19s0,0,0,0a.66.66,0,0,0,.12.17.5.5,0,0,0,.19.13.49.49,0,0,0,.21,0H.7l8.52-2,0,0,.05,0,.12-.07,0,0h0L30.18,8.81a5.17,5.17,0,0,0,0-7.3" transform="translate(0 0)"/></g></g></g></svg>